<svg width="48" height="48" viewBox="0 0 48 48" fill="none" xmlns="http://www.w3.org/2000/svg">
<path d="M37.9393 19.2765C39.7337 17.4821 38.9154 15.3863 37.9393 14.3671L33.6326 10.0607C31.8238 8.26633 29.7422 9.08456 28.723 10.0607L26.2825 12.5154H22.5644C19.8369 12.5154 18.2578 13.9508 17.4539 15.6016L11.08 21.9752V27.7171L10.0607 28.7219C8.26629 30.5307 9.08456 32.6121 10.0607 33.6313L14.3674 37.9377C15.1426 38.7129 15.9752 39 16.7648 39C17.784 39 18.7171 38.4976 19.277 37.9377L23.153 34.0476H28.3067C30.7471 34.0476 31.9817 32.526 32.4267 31.0331C34.0489 30.6024 34.9389 29.3679 35.2978 28.1621C37.523 27.5879 38.3556 25.4778 38.3556 23.9992V19.6928H37.5086L37.9393 19.2765ZM35.4845 23.9992C35.4845 24.6452 35.2117 25.4347 34.0489 25.4347H32.6133V26.8702C32.6133 27.5161 32.3406 28.3057 31.1778 28.3057H29.7422V29.7411C29.7422 30.3871 29.4695 31.1766 28.3067 31.1766H21.9759L17.2672 35.885C16.8222 36.3013 16.5638 36.0573 16.4059 35.8994L12.1136 31.6216C11.6973 31.1766 11.9413 30.9182 12.0992 30.7603L13.9511 28.8942V23.1523L16.8222 20.2813V22.5637C16.8222 24.3007 17.9707 26.8702 21.1289 26.8702C24.2871 26.8702 25.4356 24.3007 25.4356 22.5637H35.4845V23.9992ZM35.9008 17.2381L33.4603 19.6928H22.5644V22.5637C22.5644 23.2097 22.2917 23.9992 21.1289 23.9992C19.9661 23.9992 19.6933 23.2097 19.6933 22.5637V18.2573C19.6933 17.597 19.9374 15.3863 22.5644 15.3863H27.4597L30.7328 12.1134C31.1778 11.6971 31.4362 11.9412 31.5941 12.0991L35.8864 16.3768C36.3027 16.8218 36.0587 17.0802 35.9008 17.2381Z" fill="#5FCFCE"/>
</svg>
