<svg width="48" height="48" viewBox="0 0 48 48" fill="none" xmlns="http://www.w3.org/2000/svg">
<path d="M24.381 33.6H14.4762V16.8H24.381M25.2105 14.4H23.1429V12H15.7143V14.4H13.6467C12.7429 14.4 12 15.12 12 15.996V34.404C12 35.28 12.7429 36 13.6467 36H25.2105C26.1267 36 26.8571 35.292 26.8571 34.404V15.996C26.8571 15.12 26.1143 14.4 25.2105 14.4ZM23.1429 28.8H15.7143V32.4H23.1429V28.8ZM23.1429 23.4H15.7143V27H23.1429V23.4ZM38 21.6H34.2857V13.2L28.0952 25.2H31.8095V34.8" fill="#5FCFCE"/>
</svg>
