<svg xmlns="http://www.w3.org/2000/svg" width="106" height="28" viewBox="0 0 106 28" fill="none" class="svg replaced-svg">
<path d="M6.58346 9.30769C7.35345 8.1282 8.31594 7.20513 9.47094 6.53846C10.6259 5.84615 11.9093 5.5 13.3209 5.5V12.4615H11.5114C9.86877 12.4615 8.63678 12.8205 7.81545 13.5385C6.99412 14.2308 6.58346 15.4615 6.58346 17.2308V27.1923H0V5.73077H6.58346V9.30769Z" fill="#F0FDFF" class="text"></path>
<path d="M26.2466 27.5C24.1419 27.5 22.2426 27.0513 20.5486 26.1538C18.8803 25.2564 17.5585 23.9744 16.5832 22.3077C15.6335 20.641 15.1587 18.6923 15.1587 16.4615C15.1587 14.2564 15.6463 12.3205 16.6217 10.6538C17.597 8.96154 18.9316 7.66667 20.6256 6.76923C22.3196 5.87179 24.2189 5.42308 26.3236 5.42308C28.4282 5.42308 30.3276 5.87179 32.0216 6.76923C33.7155 7.66667 35.0502 8.96154 36.0255 10.6538C37.0009 12.3205 37.4885 14.2564 37.4885 16.4615C37.4885 18.6667 36.988 20.6154 35.987 22.3077C35.0117 23.9744 33.6642 25.2564 31.9446 26.1538C30.2506 27.0513 28.3512 27.5 26.2466 27.5ZM26.2466 21.8077C27.5043 21.8077 28.5694 21.3462 29.4421 20.4231C30.3404 19.5 30.7896 18.1795 30.7896 16.4615C30.7896 14.7436 30.3532 13.4231 29.4806 12.5C28.6336 11.5769 27.5813 11.1154 26.3236 11.1154C25.0403 11.1154 23.9751 11.5769 23.1281 12.5C22.2811 13.3974 21.8576 14.7179 21.8576 16.4615C21.8576 18.1795 22.2683 19.5 23.0896 20.4231C23.9366 21.3462 24.9889 21.8077 26.2466 21.8077Z" fill="#F0FDFF" class="text"></path>
<path d="M62.1945 5.73077V27.1923H55.6111V24.2692C54.9437 25.218 54.0326 25.9872 52.8776 26.5769C51.7483 27.141 50.4906 27.4231 49.1046 27.4231C47.462 27.4231 46.0118 27.0641 44.7541 26.3462C43.4965 25.6026 42.5212 24.5385 41.8282 23.1538C41.1352 21.7692 40.7887 20.141 40.7887 18.2692V5.73077H47.3336V17.3846C47.3336 18.8205 47.7058 19.9359 48.4501 20.7308C49.1944 21.5256 50.1954 21.9231 51.4531 21.9231C52.7364 21.9231 53.7502 21.5256 54.4946 20.7308C55.2389 19.9359 55.6111 18.8205 55.6111 17.3846V5.73077H62.1945Z" fill="#F0FDFF" class="text"></path>
<path d="M78.8968 21.6154V27.1923H75.5473C73.1603 27.1923 71.2995 26.6154 69.9649 25.4615C68.6302 24.2821 67.9629 22.3718 67.9629 19.7308V11.1923H65.3449V5.73077H67.9629V0.5H74.5463V5.73077H78.8583V11.1923H74.5463V19.8077C74.5463 20.4487 74.7003 20.9103 75.0083 21.1923C75.3163 21.4744 75.8296 21.6154 76.5483 21.6154H78.8968Z" fill="#F0FDFF" class="text"></path>
<path d="M89.1473 9.30769C89.9173 8.1282 90.8798 7.20513 92.0348 6.53846C93.1898 5.84615 94.4731 5.5 95.8848 5.5V12.4615H94.0753C92.4327 12.4615 91.2007 12.8205 90.3793 13.5385C89.558 14.2308 89.1473 15.4615 89.1473 17.2308V27.1923H82.5639V5.73077H89.1473V9.30769Z" fill="#F0FDFF" class="text"></path>
<path d="M102.112 27.5C100.957 27.5 100.007 27.1667 99.2626 26.5C98.5439 25.8077 98.1846 24.9615 98.1846 23.9615C98.1846 22.9359 98.5439 22.0769 99.2626 21.3846C100.007 20.6923 100.957 20.3462 102.112 20.3462C103.241 20.3462 104.165 20.6923 104.884 21.3846C105.628 22.0769 106 22.9359 106 23.9615C106 24.9615 105.628 25.8077 104.884 26.5C104.165 27.1667 103.241 27.5 102.112 27.5Z" fill="#5FCFCE" class="dot"></path>
</svg>