<svg width="48" height="48" viewBox="0 0 48 48" fill="none" xmlns="http://www.w3.org/2000/svg">
<path d="M24.9195 34C24.9195 34.4533 24.9726 34.8933 25.0389 35.3333H16.2964C14.3065 35.3333 12.5686 34.6667 11.1359 33.24C9.71638 31.84 9 30.12 9 28.1067C9 26.3733 9.51738 24.8267 10.5522 23.4667C11.5869 22.1067 12.9799 21.24 14.6382 20.8667C15.1953 18.8267 16.2964 17.1733 17.9547 15.9067C19.613 14.64 21.4968 14 23.5929 14C26.1798 14 28.3687 14.9067 30.1729 16.72C31.9771 18.5333 32.8792 20.7333 32.8792 23.3333C34.4048 23.5067 35.6651 24.1733 36.6734 25.3333C37.35 26.0933 37.7877 26.9467 38 27.8933C36.6203 26.72 34.8692 26 32.8792 26C32.7333 26 32.6006 26 32.4547 26C32.3751 26 32.2955 26 32.2159 26H30.226V23.3333C30.226 21.4933 29.5627 19.92 28.2891 18.6133C26.989 17.3333 25.4236 16.6667 23.5929 16.6667C21.7621 16.6667 20.1967 17.3333 18.8966 18.6133C17.6231 19.92 16.9597 21.4933 16.9597 23.3333H16.2964C15.0096 23.3333 13.9218 23.7867 13.0197 24.7067C12.1043 25.6133 11.6532 26.7067 11.6532 28C11.6532 29.2933 12.1043 30.3867 13.0197 31.3333C13.9218 32.2133 15.0096 32.6667 16.2964 32.6667H25.0389C24.9726 33.1067 24.9195 33.5467 24.9195 34ZM31.221 34.5733L29.1116 32.4533L27.5727 34L31.221 38L37.5224 31.6667L35.9835 29.7867L31.221 34.5733Z" fill="#5FCFCE"/>
</svg>
